<?xml version="1.0" encoding="UTF-8"?>
<svg id="_레이어_1" xmlns="http://www.w3.org/2000/svg" version="1.1" viewBox="58 0 136 147.4">
  <!-- Generator: Adobe Illustrator 30.2.1, SVG Export Plug-In . SVG Version: 2.1.1 Build 1)  -->
  <defs>
    <style>
      .st0 {
        fill: #830f84;
      }
    </style>
  </defs>
  <path class="st0" d="M192.73,41.78c-2.32-3.88-5.98-6.42-10.82-7.59-1.98-.47-3.93-.72-5.76-.72-10.82,0-15.64,8.18-15.84,8.5,0,0-5.44,9.36-9.22,15.89-3.26-5.56-5.58-9.59-6.89-11.98-6.3-11.61-17.62-11.86-18.11-11.86s-11.74.27-17.99,11.86c-1.31,2.4-3.68,6.52-6.89,11.98-4.05-6.99-7.78-13.39-9.19-15.86-.2-.35-5.04-8.52-15.86-8.52-1.85,0-3.78.25-5.76.72-4.87,1.16-8.5,3.73-10.82,7.59-3.39,5.61-3.63,13.37-.82,24.41,2.74,10.7,17.62,59.28,19.3,64.81,1.8,5.91,8.01,15.86,19.69,15.86,1.31,0,2.64-.12,3.98-.37,13.42-2.5,18.33-14.53,19.1-21.13,1.38-5.63,3.9-10.23,5.34-11.51,1.43,1.28,3.95,5.86,5.31,11.39.79,6.72,5.71,18.75,19.13,21.25,1.36.25,2.69.37,3.98.37,11.69,0,17.87-9.98,19.67-15.89.17-.52,16.41-53.52,19.3-64.81,2.82-11.05,2.57-18.8-.82-24.41M163.47,127.67c-.27.82-2.72,7.93-9.07,7.93-.57,0-1.16-.05-1.75-.17-8.82-1.63-9.96-11.22-10.03-11.71l-.12-.67c-.79-3.31-5.19-19.87-15.91-20.76h-.94c-10.7.89-15.12,17.45-15.91,20.83l-.1.62c-.05.42-1.24,10.03-10.01,11.66-.59.12-1.21.17-1.75.17-6.38,0-8.8-7.09-9.07-7.88-.15-.52-16.36-53.4-19.15-64.29-2.45-9.61-1.61-13.89-.44-15.81.47-.77,1.36-1.85,3.81-2.45,1.04-.25,2.05-.37,2.99-.37,4.3,0,6.03,2.62,6.2,2.87,3.61,6.23,8.23,14.18,12.35,21.32-3.51,5.86-6.25,10.4-6.28,10.45-.52.79-4.92,7.88-3.09,15.67,1.48,6.28,6.84,13.02,15.07,13.02.37,0,.74,0,1.14-.05,7.76-.59,11.54-4.4,13.34-7.51,4.03-6.94,1.38-16.01.15-18.66-.44-.91-2.67-4.89-7.24-12.85,5.07-8.52,8.55-14.5,10.33-17.82,2.87-5.29,7.36-5.88,8.06-5.96.86.07,5.39.67,8.23,5.96,2.22,4.1,6.77,11.84,10.33,17.82-4.42,7.71-6.8,11.91-7.24,12.85-1.24,2.64-3.88,11.71.15,18.66,1.8,3.09,5.58,6.92,13.34,7.51.4.02.79.05,1.16.05,8.23,0,13.57-6.75,15.05-13.02,1.85-7.81-2.5-14.78-2.99-15.52-.07-.12-2.87-4.72-6.38-10.6,4.13-7.14,8.72-15.07,12.31-21.25.2-.3,1.98-2.94,6.25-2.94.94,0,1.95.12,2.99.37,2.42.57,3.31,1.61,3.81,2.45,1.14,1.9,2,6.2-.44,15.81-2.52,9.83-16.28,54.93-19.03,63.87l-.12.37.02.02ZM105.01,94.93c-.25.42-.96,1.66-4.45,1.93h-.27c-2.99,0-4.08-4.3-4.1-4.32-.62-2.67.96-6,1.66-7.09l3.16-5.26c1.38,2.42,3.39,5.93,3.71,6.57.54,1.16,1.66,5.81.3,8.15M154.5,85.56c.62.96,2.22,4.32,1.58,6.92,0,.05-1.21,4.37-4.37,4.37h0c-3.48-.27-4.2-1.51-4.45-1.93-1.38-2.37-.25-7.02.3-8.15.15-.3.84-1.58,3.71-6.6,1.8,2.99,3.04,5.04,3.26,5.39"/>
  <path class="st0" d="M98.88,34.76c9.44,0,17.1-7.68,17.1-17.1S108.29.53,98.88.53s-17.12,7.68-17.12,17.12,7.68,17.1,17.12,17.1M98.88,11.8c3.21,0,5.83,2.62,5.83,5.83s-2.62,5.83-5.83,5.83-5.83-2.62-5.83-5.83,2.62-5.83,5.83-5.83"/>
  <path class="st0" d="M153.39,34.76c9.44,0,17.1-7.68,17.1-17.1S162.8.53,153.39.53s-17.12,7.68-17.12,17.12,7.68,17.1,17.12,17.1M153.39,11.8c3.21,0,5.83,2.62,5.83,5.83s-2.62,5.83-5.83,5.83-5.83-2.62-5.83-5.83,2.62-5.83,5.83-5.83"/>
</svg>
