<?xml version="1.0" encoding="UTF-8"?>
<svg id="_레이어_1" xmlns="http://www.w3.org/2000/svg" version="1.1" viewBox="0 0 260.79 147.4">
  <!-- Generator: Adobe Illustrator 30.2.1, SVG Export Plug-In . SVG Version: 2.1.1 Build 1)  -->
  <defs>
    <style>
      .st0 {
        fill: #830f84;
      }
    </style>
  </defs>
  <path class="st0" d="M160.04,37.35c-.94-1.57-2.42-2.6-4.38-3.07-.8-.19-1.59-.29-2.33-.29-4.38,0-6.33,3.31-6.41,3.44,0,0-2.2,3.79-3.73,6.43-1.32-2.25-2.26-3.88-2.79-4.85-2.55-4.7-7.13-4.8-7.33-4.8s-4.75.11-7.28,4.8c-.53.97-1.49,2.64-2.79,4.85-1.64-2.83-3.15-5.42-3.72-6.42-.08-.14-2.04-3.45-6.42-3.45-.75,0-1.53.1-2.33.29-1.97.47-3.44,1.51-4.38,3.07-1.37,2.27-1.47,5.41-.33,9.88,1.11,4.33,7.13,23.99,7.81,26.23.73,2.39,3.24,6.42,7.97,6.42.53,0,1.07-.05,1.61-.15,5.43-1.01,7.42-5.88,7.73-8.55.56-2.28,1.58-4.14,2.16-4.66.58.52,1.6,2.37,2.15,4.61.32,2.72,2.31,7.59,7.74,8.6.55.1,1.09.15,1.61.15,4.73,0,7.23-4.04,7.96-6.43.07-.21,6.64-21.66,7.81-26.23,1.14-4.47,1.04-7.61-.33-9.88M148.2,72.11c-.11.33-1.1,3.21-3.67,3.21-.23,0-.47-.02-.71-.07-3.57-.66-4.03-4.54-4.06-4.74l-.05-.27c-.32-1.34-2.1-8.04-6.44-8.4h-.38c-4.33.36-6.12,7.06-6.44,8.43l-.04.25c-.02.17-.5,4.06-4.05,4.72-.24.05-.49.07-.71.07-2.58,0-3.56-2.87-3.67-3.19-.06-.21-6.62-21.61-7.75-26.02-.99-3.89-.65-5.62-.18-6.4.19-.31.55-.75,1.54-.99.42-.1.83-.15,1.21-.15,1.74,0,2.44,1.06,2.51,1.16,1.46,2.52,3.33,5.74,5,8.63-1.42,2.37-2.53,4.21-2.54,4.23-.21.32-1.99,3.19-1.25,6.34.6,2.54,2.77,5.27,6.1,5.27.15,0,.3,0,.46-.02,3.14-.24,4.67-1.78,5.4-3.04,1.63-2.81.56-6.48.06-7.55-.18-.37-1.08-1.98-2.93-5.2,2.05-3.45,3.46-5.87,4.18-7.21,1.16-2.14,2.98-2.38,3.26-2.41.35.03,2.18.27,3.33,2.41.9,1.66,2.74,4.79,4.18,7.21-1.79,3.12-2.75,4.82-2.93,5.2-.5,1.07-1.57,4.74.06,7.55.73,1.25,2.26,2.8,5.4,3.04.16.01.32.02.47.02,3.33,0,5.49-2.73,6.09-5.27.75-3.16-1.01-5.98-1.21-6.28-.03-.05-1.16-1.91-2.58-4.29,1.67-2.89,3.53-6.1,4.98-8.6.08-.12.8-1.19,2.53-1.19.38,0,.79.05,1.21.15.98.23,1.34.65,1.54.99.46.77.81,2.51-.18,6.4-1.02,3.98-6.59,22.23-7.7,25.85l-.05.15h.01ZM124.54,58.86c-.1.17-.39.67-1.8.78h-.11c-1.21,0-1.65-1.74-1.66-1.75-.25-1.08.39-2.43.67-2.87l1.28-2.13c.56.98,1.37,2.4,1.5,2.66.22.47.67,2.35.12,3.3M144.57,55.07c.25.39.9,1.75.64,2.8,0,.02-.49,1.77-1.77,1.77h0c-1.41-.11-1.7-.61-1.8-.78-.56-.96-.1-2.84.12-3.3.06-.12.34-.64,1.5-2.67.73,1.21,1.23,2.04,1.32,2.18"/>
  <path class="st0" d="M122.06,34.51c3.82,0,6.92-3.11,6.92-6.92s-3.11-6.93-6.92-6.93-6.93,3.11-6.93,6.93,3.11,6.92,6.93,6.92M122.06,25.22c1.3,0,2.36,1.06,2.36,2.36s-1.06,2.36-2.36,2.36-2.36-1.06-2.36-2.36,1.06-2.36,2.36-2.36"/>
  <path class="st0" d="M144.12,34.51c3.82,0,6.92-3.11,6.92-6.92s-3.11-6.93-6.92-6.93-6.93,3.11-6.93,6.93,3.11,6.92,6.93,6.92M144.12,25.22c1.3,0,2.36,1.06,2.36,2.36s-1.06,2.36-2.36,2.36-2.36-1.06-2.36-2.36,1.06-2.36,2.36-2.36"/>
</svg>