<?xml version="1.0" encoding="UTF-8"?>
<svg id="_레이어_1" xmlns="http://www.w3.org/2000/svg" version="1.1" viewBox="0 0 260.79 147.4">
  <!-- Generator: Adobe Illustrator 30.2.1, SVG Export Plug-In . SVG Version: 2.1.1 Build 1)  -->
  <defs>
    <style>
      .st0 {
        fill: #323333;
      }

      .st1 {
        fill: #830f84;
      }
    </style>
  </defs>
  <path class="st1" d="M176.26,28.82c-1.44-2.41-3.71-3.99-6.72-4.71-1.23-.29-2.44-.45-3.58-.45-6.72,0-9.72,5.08-9.84,5.28,0,0-3.38,5.82-5.73,9.87-2.03-3.45-3.47-5.96-4.28-7.44-3.91-7.21-10.94-7.37-11.25-7.37s-7.29.17-11.17,7.37c-.81,1.49-2.29,4.05-4.28,7.44-2.52-4.34-4.84-8.32-5.71-9.85-.12-.21-3.13-5.3-9.85-5.3-1.15,0-2.35.15-3.58.45-3.02.72-5.28,2.32-6.72,4.71-2.1,3.48-2.26,8.3-.51,15.17,1.7,6.65,10.94,36.82,11.99,40.26,1.12,3.67,4.97,9.85,12.23,9.85.81,0,1.64-.08,2.47-.23,8.33-1.55,11.39-9.03,11.87-13.12.86-3.5,2.43-6.35,3.32-7.15.89.8,2.46,3.64,3.3,7.08.49,4.18,3.55,11.65,11.88,13.2.84.15,1.67.23,2.47.23,7.26,0,11.1-6.2,12.22-9.87.11-.32,10.19-33.25,11.99-40.26,1.75-6.86,1.6-11.68-.51-15.17M158.09,82.17c-.17.51-1.69,4.93-5.63,4.93-.35,0-.72-.03-1.09-.11-5.48-1.01-6.19-6.97-6.23-7.28l-.08-.41c-.49-2.06-3.22-12.34-9.89-12.89h-.58c-6.65.55-9.39,10.84-9.89,12.94l-.06.38c-.03.26-.77,6.23-6.22,7.24-.37.08-.75.11-1.09.11-3.96,0-5.46-4.41-5.63-4.9-.09-.32-10.16-33.17-11.9-39.94-1.52-5.97-1-8.63-.28-9.82.29-.48.84-1.15,2.36-1.52.64-.15,1.27-.23,1.86-.23,2.67,0,3.75,1.63,3.85,1.78,2.24,3.87,5.11,8.81,7.67,13.25-2.18,3.64-3.88,6.46-3.9,6.49-.32.49-3.05,4.9-1.92,9.73.92,3.9,4.25,8.09,9.36,8.09.23,0,.46,0,.71-.03,4.82-.37,7.17-2.73,8.29-4.67,2.5-4.31.86-9.95.09-11.59-.28-.57-1.66-3.04-4.5-7.98,3.15-5.3,5.31-9.01,6.42-11.07,1.78-3.28,4.57-3.65,5-3.7.54.05,3.35.41,5.11,3.7,1.38,2.55,4.21,7.35,6.42,11.07-2.75,4.79-4.22,7.4-4.5,7.98-.77,1.64-2.41,7.28.09,11.59,1.12,1.92,3.47,4.3,8.29,4.67.25.02.49.03.72.03,5.11,0,8.43-4.19,9.35-8.09,1.15-4.85-1.55-9.18-1.86-9.64-.05-.08-1.78-2.93-3.96-6.58,2.56-4.44,5.42-9.36,7.64-13.2.12-.18,1.23-1.83,3.88-1.83.58,0,1.21.08,1.86.23,1.5.35,2.06,1,2.36,1.52.71,1.18,1.24,3.85-.28,9.82-1.57,6.11-10.12,34.12-11.82,39.68l-.08.23h.02v.02ZM121.77,61.83c-.15.26-.6,1.03-2.76,1.2h-.17c-1.86,0-2.53-2.67-2.55-2.69-.38-1.66.6-3.73,1.03-4.41l1.96-3.27c.86,1.5,2.1,3.68,2.3,4.08.34.72,1.03,3.61.18,5.07M152.51,56.02c.38.6,1.38,2.69.98,4.3,0,.03-.75,2.72-2.72,2.72h0c-2.16-.17-2.61-.94-2.76-1.2-.86-1.47-.15-4.36.18-5.07.09-.18.52-.98,2.3-4.1,1.12,1.86,1.89,3.13,2.03,3.35"/>
  <path class="st1" d="M117.96,24.46c5.86,0,10.62-4.77,10.62-10.62s-4.77-10.64-10.62-10.64-10.64,4.77-10.64,10.64,4.77,10.62,10.64,10.62M117.96,10.2c2,0,3.62,1.63,3.62,3.62s-1.63,3.62-3.62,3.62-3.62-1.63-3.62-3.62,1.63-3.62,3.62-3.62"/>
  <path class="st1" d="M151.82,24.46c5.86,0,10.62-4.77,10.62-10.62s-4.77-10.64-10.62-10.64-10.64,4.77-10.64,10.64,4.77,10.62,10.64,10.62M151.82,10.2c2,0,3.62,1.63,3.62,3.62s-1.63,3.62-3.62,3.62-3.62-1.63-3.62-3.62,1.63-3.62,3.62-3.62"/>
  <path class="st0" d="M41.75,113.33c0-.86.08-1.73.29-2.59.17-.86.43-1.69.77-2.52.34-.78.75-1.55,1.21-2.3.48-.72,1-1.43,1.6-2.09h2.04c-.66.89-1.2,1.75-1.6,2.58-.43.86-.77,1.66-1.03,2.43-.26.78-.45,1.55-.55,2.3-.12.77-.18,1.49-.18,2.19,0,1.43.26,2.92.77,4.48.51,1.58,1.37,3.22,2.59,4.97h-2.04c-.55-.6-1.04-1.27-1.52-2.03-.49-.72-.89-1.52-1.24-2.35-.37-.81-.64-1.66-.83-2.53-.21-.86-.29-1.69-.29-2.53"/>
  <path class="st0" d="M61.09,118.09l-1.81,1.3-4.1-7.43-4.11,7.43-1.81-1.3,5.92-10.35,5.91,10.35ZM64.94,111.47h3.05v2.13h-3.05v6.83h-2.19v-15.44h2.19v6.48Z"/>
  <path class="st0" d="M75.26,113.33c0,.86-.11,1.69-.29,2.53-.21.87-.49,1.73-.83,2.53-.37.83-.77,1.63-1.24,2.35-.49.75-1,1.43-1.53,2.03h-2.03c1.2-1.75,2.07-3.39,2.59-4.97.51-1.55.77-3.05.77-4.48,0-.71-.06-1.43-.18-2.19-.12-.75-.32-1.52-.55-2.3-.26-.77-.6-1.58-1.03-2.43-.43-.83-.95-1.69-1.6-2.58h2.03c.6.66,1.14,1.37,1.6,2.09.48.75.87,1.52,1.21,2.3.32.83.58,1.66.78,2.52.18.87.29,1.75.29,2.59"/>
  <path class="st0" d="M86.68,110.55h-3.24l3.99,7.78-1.86,1.3-3.22-7.03-3.19,7.03-1.9-1.3,3.96-7.78h-3.24v-2.07h8.7v2.07ZM88.95,106.04h2.04v14.4h-2.04v-6.03h-2.73v-2.03h2.73v-6.34ZM95.03,120.42h-2.07v-15.44h2.07v15.44Z"/>
  <path class="st0" d="M112.13,115.63v1.92h-6.46v4.8h-2.07v-4.8h-6.46v-1.92s15,0,15,0ZM110.01,108.19h-4.39l5.25,4.5c-.29.31-.58.54-.78.72-.26.21-.51.45-.78.68l-4.7-4.1-4.67,4.07c-.29-.26-.55-.51-.81-.72s-.51-.43-.75-.66l5.26-4.5h-4.39v-2.09h10.78v2.09h0l-.02.02Z"/>
  <path class="st0" d="M118.62,108.31c.81,0,1.53.18,2.21.54.64.38,1.21.87,1.69,1.49h4.73v-5.36h2.19v15.44h-2.19v-3.05h-5.11c-.46.51-.98.89-1.58,1.15-.61.29-1.26.43-1.93.43s-1.3-.12-1.9-.43c-.61-.26-1.15-.64-1.58-1.14-.48-.48-.81-1.03-1.06-1.69-.26-.64-.38-1.35-.38-2.09s.12-1.41.38-2.07c.26-.64.6-1.21,1.06-1.69.43-.48.95-.86,1.58-1.15.6-.26,1.21-.4,1.9-.4M118.62,116.72c.38,0,.77-.09,1.14-.26.34-.15.66-.37.94-.66.26-.26.48-.58.64-.95.15-.38.23-.8.23-1.21s-.09-.83-.23-1.21c-.17-.37-.38-.68-.64-.98-.28-.26-.6-.48-.94-.64-.37-.15-.75-.23-1.14-.23s-.77.09-1.11.23c-.37.17-.68.38-.94.64-.28.29-.49.61-.61.98-.17.38-.23.78-.23,1.21s.06.83.23,1.21c.12.38.34.71.61.95.26.29.58.51.94.66.34.17.72.26,1.11.26M123.6,113.62c0,.29-.02.6-.06.87-.05.29-.12.6-.21.86h3.94v-2.99h-3.84c.11.43.17.83.17,1.26"/>
  <path class="st0" d="M136.26,105.76l5.25,8.07-1.81,1.37-3.44-5.8-3.44,5.8-1.81-1.37,5.25-8.07ZM137.92,120.81c0-.54.11-1.04.34-1.55.21-.49.51-.92.89-1.27.38-.34.84-.64,1.38-.87.51-.21,1.09-.34,1.69-.34s1.17.14,1.7.34c.51.23.95.54,1.37.87.38.37.68.78.92,1.27.21.51.34,1.03.34,1.55,0,.58-.12,1.11-.34,1.6-.23.48-.54.89-.92,1.26-.4.34-.86.64-1.37.86-.54.21-1.11.32-1.7.32s-1.17-.11-1.69-.32c-.54-.21-1-.51-1.38-.86-.38-.37-.69-.78-.89-1.26-.23-.49-.34-1.03-.34-1.6M140,120.81c0,.55.21,1.04.64,1.43s.94.58,1.58.58,1.15-.18,1.58-.58c.43-.38.64-.87.64-1.43s-.21-1-.64-1.38-.95-.58-1.58-.58-1.15.18-1.58.58-.64.84-.64,1.38M140.91,108.83h3.99v-3.84h2.24v11.11h-2.24v-5.2h-3.99v-2.07Z"/>
  <path class="st0" d="M154.05,106c.69,0,1.3.15,1.9.4.57.28,1.09.64,1.52,1.06.43.48.77,1,1.03,1.6.23.61.37,1.26.37,1.93s-.12,1.37-.37,1.96c-.26.61-.6,1.15-1.03,1.6-.43.46-.94.81-1.52,1.06-.6.26-1.21.38-1.9.38s-1.3-.12-1.87-.38c-.6-.26-1.11-.6-1.53-1.06-.43-.45-.77-.98-1-1.6-.26-.6-.38-1.26-.38-1.96s.12-1.32.38-1.93c.23-.6.58-1.14,1-1.6.43-.43.94-.78,1.53-1.06.58-.26,1.2-.4,1.87-.4M154.05,113.95c.77,0,1.41-.28,1.92-.86.49-.55.75-1.24.75-2.04,0-.4-.06-.78-.18-1.15-.15-.34-.34-.66-.55-.94-.26-.26-.54-.48-.84-.64-.34-.15-.71-.23-1.07-.23s-.72.09-1.04.23c-.34.17-.61.38-.84.64-.26.28-.43.6-.55.94-.15.37-.21.75-.21,1.15,0,.81.26,1.49.77,2.04.49.57,1.14.86,1.9.86M163.67,124.05h-10.02v-6.12h2.21v4.16h7.8v1.96h.02ZM164.21,117.6h-2.18v-12.6h2.18v12.6Z"/>
  <path class="st0" d="M178.27,112.67v1.86h-5.1v3.13h-2.13v-3.13h-4.18v-1.86h11.4ZM176.37,112.15h-2.13v-4.7h-6.68v-1.96h8.81v6.65h0v.02ZM181.34,124.06h-10.02v-5.19h2.15v3.28h7.87v1.9ZM177.01,115.86h2.73v-10.88h2.13v12.48h-4.87v-1.6Z"/>
  <path class="st0" d="M188.78,106c.78,0,1.52.18,2.19.54.64.37,1.2.86,1.64,1.44h4.56v-2.99h2.18v12.62h-2.18v-3.67h-4.48c-.43.64-.98,1.15-1.64,1.52-.68.38-1.44.55-2.27.55-.69,0-1.3-.14-1.87-.38-.6-.26-1.11-.6-1.53-1.06-.43-.45-.77-.98-1-1.6-.26-.6-.38-1.26-.38-1.96s.12-1.32.38-1.93c.23-.6.58-1.14,1-1.6.43-.43.94-.78,1.53-1.06.58-.26,1.2-.4,1.87-.4M188.78,113.95c.77,0,1.41-.28,1.92-.84.49-.55.75-1.24.75-2.04,0-.4-.06-.78-.18-1.15-.15-.34-.34-.66-.55-.94-.26-.26-.54-.48-.86-.64-.34-.15-.71-.23-1.06-.23-.38,0-.72.09-1.04.23-.34.17-.61.38-.86.64-.26.28-.43.6-.55.94-.15.37-.21.75-.21,1.15,0,.81.26,1.49.77,2.04.49.57,1.14.84,1.9.84M198.87,124.05h-10.02v-6.12h2.19v4.16h7.83v1.96ZM193.57,111.05c0,.34-.05.64-.09.92h3.68v-2.04h-3.71c.05.21.06.38.08.55v.58"/>
  <path class="st0" d="M204.13,118.11h5.8v1.93h-7.9v-11.56h6.57v1.98h-4.45v7.63h-.02v.02ZM215.94,113.55h-2.41v6.89h-2.04v-14.4h2.04v5.59h2.41v-6.63h2.04v15.44h-2.04v-6.89Z"/>
  <path class="st0" d="M57.29,137.6v1.43h-4.82v3.3h-1.55v-3.3h-4.82v-1.43h11.19ZM49.07,129.91v1.87h5.25v-1.35h1.58v5.6h-8.38v-6.12h1.57-.02ZM49.07,134.64h5.25v-1.49h-5.25v1.49Z"/>
  <path class="st0" d="M65.85,135.51l-1.32.95-2.56-3.96c-.38.63-.81,1.29-1.26,1.96-.46.71-.89,1.37-1.3,2.01-.28-.18-.49-.34-.68-.49-.18-.14-.41-.31-.66-.48l3.9-5.62,3.88,5.62ZM64.24,142.31h6.08v1.3h-7.71v-3.55h5.28v-.95h-4.84v-1.29h6.45v3.53h-5.26s0,.95,0,.95ZM65.44,132.04h2.98v-2.66h1.67v7.43h-1.67v-3.21h-2.98v-1.57Z"/>
  <path class="st0" d="M83.56,133.55h-2.41l2.98,5.8-1.38.97-2.39-5.25-2.38,5.25-1.41-.97,2.96-5.8h-2.43v-1.55h6.49v1.55h-.03ZM85.27,130.17h1.53v10.73h-1.53v-4.5h-2.04v-1.5h2.04s0-4.73,0-4.73ZM89.8,140.92h-1.53v-11.51h1.53v11.51Z"/>
  <path class="st0" d="M102.55,137.32v1.43h-4.82v3.58h-1.55v-3.58h-4.82v-1.43h11.19ZM100.97,131.78h-3.27l3.91,3.36c-.21.23-.43.4-.58.54-.18.15-.38.34-.58.51l-3.5-3.05-3.48,3.04c-.23-.18-.41-.38-.6-.54s-.38-.32-.55-.49l3.93-3.36h-3.27v-1.57h8.03v1.57h-.03Z"/>
  <path class="st0" d="M108.15,131.05h2.89v1.4h-1.29c.31.29.52.64.66,1.04.12.41.18.8.18,1.14,0,.45-.09.87-.26,1.26-.17.41-.4.77-.69,1.04-.31.29-.63.51-1.01.68-.4.17-.83.26-1.27.26s-.86-.08-1.24-.26c-.4-.15-.74-.38-1.01-.68-.31-.29-.54-.63-.71-1.04-.17-.38-.26-.81-.26-1.26,0-.34.06-.71.18-1.09.11-.38.34-.74.66-1.09h-1.29v-1.4h2.89v-1.8h1.55v1.8s.03,0,.03,0ZM107.39,136.4c.25,0,.46-.05.68-.15.18-.09.35-.23.51-.4.14-.15.26-.35.35-.57.06-.23.11-.46.11-.72,0-.51-.15-.94-.48-1.3-.32-.35-.74-.54-1.24-.54-.43.03-.8.23-1.07.57-.31.37-.45.8-.45,1.27,0,.51.15.94.48,1.29.31.38.68.55,1.14.55M114.75,143.62h-7.48v-4.36h1.66v2.84h5.82v1.5h0v.02ZM110.98,132.73h2.55v-3.35h1.64v9.39h-1.64v-2.09h-2.55v-1.35h2.55v-1.27h-2.55v-1.35h0v.02Z"/>
  <path class="st0" d="M124.01,131.89h-2.07l2.78,4.33-1.34.98-2.72-4.59-2.7,4.59-1.34-.98,2.78-4.33h-2.07v-1.46h6.66v1.46h.02ZM121.15,141.19c0-.4.08-.78.26-1.17.15-.37.38-.68.66-.95.29-.26.63-.48,1.03-.66.38-.15.81-.25,1.26-.25s.87.09,1.27.25c.38.18.72.4,1.01.66.29.28.51.58.68.95.15.38.26.77.26,1.17,0,.43-.09.83-.26,1.2-.17.35-.4.68-.68.94-.31.26-.63.48-1.01.63-.4.15-.83.25-1.27.25s-.87-.08-1.26-.25c-.4-.15-.75-.38-1.03-.63-.29-.28-.51-.58-.66-.94-.17-.37-.26-.77-.26-1.2M122.7,141.19c0,.41.15.78.48,1.06.32.29.71.43,1.18.43s.86-.14,1.18-.43.48-.64.48-1.06-.15-.75-.48-1.03c-.32-.29-.72-.43-1.18-.43s-.86.14-1.18.43-.48.63-.48,1.03M128.06,137.68h-1.64v-8.29h1.64v3.33h2.27v1.6h-2.27v3.38h0v-.02Z"/>
  <path class="st0" d="M134.43,129.96l3.91,6.03-1.35,1-2.56-4.31-2.56,4.31-1.35-1,3.91-6.03ZM134.91,141.19c0-.4.08-.78.26-1.17.15-.37.38-.68.68-.95.29-.26.61-.48,1.01-.66.38-.15.81-.25,1.27-.25s.86.09,1.26.25c.38.18.74.4,1.01.66.29.28.52.58.71.95.15.38.23.77.23,1.17,0,.43-.08.83-.23,1.2-.17.35-.41.68-.71.94s-.63.48-1.01.63c-.4.15-.81.25-1.26.25s-.89-.08-1.27-.25c-.4-.15-.74-.38-1.01-.63-.31-.28-.52-.58-.68-.94-.17-.37-.26-.77-.26-1.2M136.49,141.19c0,.41.15.78.48,1.06.32.29.71.43,1.18.43.45,0,.84-.14,1.17-.43.32-.29.48-.64.48-1.06s-.15-.75-.48-1.03c-.32-.29-.72-.43-1.17-.43-.48,0-.86.14-1.18.43s-.48.63-.48,1.03M141.83,137.68h-1.63v-8.29h1.63v3.33h2.29v1.6h-2.29v3.38h0v-.02Z"/>
  <path class="st0" d="M146.68,135.6h5.36v1.44h-6.94v-6.62h5.92v1.49h-4.36v3.67h0l.02.02ZM147.71,138.8h7.46v4.82h-7.46v-4.82ZM149.32,142.28h4.24v-2.15h-4.24v2.15ZM155.54,137.68h-1.63v-8.29h1.63v3.33h2.29v1.6h-2.29v3.38h0v-.02Z"/>
  <path class="st0" d="M161.72,129.96l3.7,6.22-1.35,1.01-2.35-4.3-2.36,4.3-1.35-1.01,3.71-6.22ZM170.78,143.62h-7.48v-4.56h1.64v3.1h5.83v1.46h0ZM166.65,130.17h1.53v8.52h-1.53v-5.08h-2.35v-1.52h2.35v-1.92ZM171.18,138.8h-1.57v-9.39h1.57v9.39Z"/>
  <path class="st0" d="M174.72,139.07h5.36v1.53h-6.94v-8.63h5.92v1.55h-4.36v1.98h3.96v1.57h-3.96v2h.02ZM182.68,140.92v-3.81h-2.82v-1.58h2.82v-6.14h1.63v11.51h-1.63v.02Z"/>
  <path class="st0" d="M187.4,131.97c-.29,0-.49-.08-.64-.26-.15-.15-.25-.34-.29-.52-.03-.09-.03-.21-.03-.35s0-.26.03-.38c.12-.52.35-.91.68-1.17.32-.25.55-.41.74-.52.06-.02.12-.02.17-.02.03.02.06.05.09.11v.15c-.03.06-.08.11-.11.14-.15.06-.31.15-.45.29-.15.14-.29.38-.38.74,0,0,.06,0,.12-.02h.2c.23,0,.4.09.54.26.12.17.18.41.18.72-.03.52-.32.8-.86.83"/>
  <path class="st0" d="M192.07,130.75h1.66v2.5h2.79v1.49h-1.18c.26.41.45.81.57,1.18.09.38.15.75.15,1.11,0,.48-.08.92-.25,1.34-.17.41-.4.78-.68,1.09-.31.32-.64.57-1.01.75-.38.18-.81.28-1.26.28s-.86-.08-1.24-.28c-.4-.17-.74-.43-1-.75-.31-.31-.52-.68-.68-1.09-.17-.41-.26-.86-.26-1.34,0-.35.06-.74.18-1.14.11-.38.29-.77.54-1.15h-1.17v-1.49h2.79v-2.5h.03,0ZM192.88,138.94c.25,0,.46-.05.68-.15.18-.09.35-.26.51-.45.14-.15.25-.38.35-.64.06-.23.11-.51.11-.8,0-.28-.05-.54-.11-.8-.09-.25-.21-.46-.35-.64-.15-.15-.32-.31-.51-.41-.2-.09-.43-.15-.68-.15-.48,0-.86.2-1.15.58-.32.4-.46.87-.46,1.43s.14,1.06.46,1.44c.29.4.66.58,1.15.58M200.65,135.77h-1.8v5.14h-1.52v-10.73h1.52v4.16h1.8v-4.94h1.52v11.51h-1.52v-5.14Z"/>
  <path class="st0" d="M205.79,135.67h4.22v1.4h-5.86v-6.63h1.66v5.23h-.02ZM208.25,138.8h7.44v4.82h-7.44v-4.82ZM209.86,142.28h4.24v-2.15h-4.24v2.15ZM214.56,129.39h1.52v8.29h-1.52v-3.38h-1.78v3.27h-1.53v-7.61h1.53v2.92h1.78v-3.48Z"/>
  <path class="st0" d="M218.1,128.71c.28,0,.49.08.64.25.14.17.23.35.28.54,0,.11.03.21.03.35s0,.26-.03.38c-.12.54-.35.92-.68,1.17-.32.26-.57.43-.74.52-.08.03-.14.03-.17.02-.05,0-.08-.05-.09-.11,0-.05,0-.11.03-.17,0-.05.05-.09.09-.12.14-.05.29-.14.45-.29.14-.12.28-.38.38-.74h-.11s-.14.02-.23.02c-.23,0-.4-.08-.52-.26-.14-.15-.21-.4-.21-.72.03-.51.32-.8.86-.83"/>
</svg>