<?xml version="1.0" encoding="UTF-8"?>
<svg id="_레이어_1" xmlns="http://www.w3.org/2000/svg" version="1.1" viewBox="0 0 260.79 147.4">
  <!-- Generator: Adobe Illustrator 30.2.1, SVG Export Plug-In . SVG Version: 2.1.1 Build 1)  -->
  <defs>
    <style>
      .st0 {
        fill: #323333;
      }

      .st1 {
        fill: #830f84;
      }
    </style>
  </defs>
  <path class="st1" d="M160.04,37.35c-.94-1.57-2.42-2.6-4.38-3.07-.8-.19-1.59-.29-2.33-.29-4.38,0-6.33,3.31-6.41,3.44,0,0-2.2,3.79-3.73,6.43-1.32-2.25-2.26-3.88-2.79-4.85-2.55-4.7-7.13-4.8-7.33-4.8s-4.75.11-7.28,4.8c-.53.97-1.49,2.64-2.79,4.85-1.64-2.83-3.15-5.42-3.72-6.42-.08-.14-2.04-3.45-6.42-3.45-.75,0-1.53.1-2.33.29-1.97.47-3.44,1.51-4.38,3.07-1.37,2.27-1.47,5.41-.33,9.88,1.11,4.33,7.13,23.99,7.81,26.23.73,2.39,3.24,6.42,7.97,6.42.53,0,1.07-.05,1.61-.15,5.43-1.01,7.42-5.88,7.73-8.55.56-2.28,1.58-4.14,2.16-4.66.58.52,1.6,2.37,2.15,4.61.32,2.72,2.31,7.59,7.74,8.6.55.1,1.09.15,1.61.15,4.73,0,7.23-4.04,7.96-6.43.07-.21,6.64-21.66,7.81-26.23,1.14-4.47,1.04-7.61-.33-9.88M148.2,72.11c-.11.33-1.1,3.21-3.67,3.21-.23,0-.47-.02-.71-.07-3.57-.66-4.03-4.54-4.06-4.74l-.05-.27c-.32-1.34-2.1-8.04-6.44-8.4h-.38c-4.33.36-6.12,7.06-6.44,8.43l-.04.25c-.02.17-.5,4.06-4.05,4.72-.24.05-.49.07-.71.07-2.58,0-3.56-2.87-3.67-3.19-.06-.21-6.62-21.61-7.75-26.02-.99-3.89-.65-5.62-.18-6.4.19-.31.55-.75,1.54-.99.42-.1.83-.15,1.21-.15,1.74,0,2.44,1.06,2.51,1.16,1.46,2.52,3.33,5.74,5,8.63-1.42,2.37-2.53,4.21-2.54,4.23-.21.32-1.99,3.19-1.25,6.34.6,2.54,2.77,5.27,6.1,5.27.15,0,.3,0,.46-.02,3.14-.24,4.67-1.78,5.4-3.04,1.63-2.81.56-6.48.06-7.55-.18-.37-1.08-1.98-2.93-5.2,2.05-3.45,3.46-5.87,4.18-7.21,1.16-2.14,2.98-2.38,3.26-2.41.35.03,2.18.27,3.33,2.41.9,1.66,2.74,4.79,4.18,7.21-1.79,3.12-2.75,4.82-2.93,5.2-.5,1.07-1.57,4.74.06,7.55.73,1.25,2.26,2.8,5.4,3.04.16.01.32.02.47.02,3.33,0,5.49-2.73,6.09-5.27.75-3.16-1.01-5.98-1.21-6.28-.03-.05-1.16-1.91-2.58-4.29,1.67-2.89,3.53-6.1,4.98-8.6.08-.12.8-1.19,2.53-1.19.38,0,.79.05,1.21.15.98.23,1.34.65,1.54.99.46.77.81,2.51-.18,6.4-1.02,3.98-6.59,22.23-7.7,25.85l-.05.15h.01ZM124.54,58.86c-.1.17-.39.67-1.8.78h-.11c-1.21,0-1.65-1.74-1.66-1.75-.25-1.08.39-2.43.67-2.87l1.28-2.13c.56.98,1.37,2.4,1.5,2.66.22.47.67,2.35.12,3.3M144.57,55.07c.25.39.9,1.75.64,2.8,0,.02-.49,1.77-1.77,1.77h0c-1.41-.11-1.7-.61-1.8-.78-.56-.96-.1-2.84.12-3.3.06-.12.34-.64,1.5-2.67.73,1.21,1.23,2.04,1.32,2.18"/>
  <path class="st1" d="M122.06,34.51c3.82,0,6.92-3.11,6.92-6.92s-3.11-6.93-6.92-6.93-6.93,3.11-6.93,6.93,3.11,6.92,6.93,6.92M122.06,25.22c1.3,0,2.36,1.06,2.36,2.36s-1.06,2.36-2.36,2.36-2.36-1.06-2.36-2.36,1.06-2.36,2.36-2.36"/>
  <path class="st1" d="M144.12,34.51c3.82,0,6.92-3.11,6.92-6.92s-3.11-6.93-6.92-6.93-6.93,3.11-6.93,6.93,3.11,6.92,6.93,6.92M144.12,25.22c1.3,0,2.36,1.06,2.36,2.36s-1.06,2.36-2.36,2.36-2.36-1.06-2.36-2.36,1.06-2.36,2.36-2.36"/>
  <path class="st0" d="M72.41,92.41c0-.56.05-1.13.19-1.69.11-.56.28-1.1.5-1.64.22-.51.49-1.01.79-1.5.31-.47.65-.93,1.04-1.36h1.33c-.43.58-.78,1.14-1.04,1.68-.28.56-.5,1.08-.67,1.58-.17.51-.29,1.01-.36,1.5-.08.5-.12.97-.12,1.43,0,.93.17,1.9.5,2.92.33,1.03.89,2.1,1.69,3.24h-1.33c-.36-.39-.68-.83-.99-1.32-.32-.47-.58-.99-.81-1.53-.24-.53-.42-1.08-.54-1.65-.14-.56-.19-1.1-.19-1.65"/>
  <path class="st0" d="M85.01,95.51l-1.18.85-2.67-4.84-2.68,4.84-1.18-.85,3.86-6.74,3.85,6.74ZM87.52,91.2h1.99v1.39h-1.99v4.45h-1.43v-10.06h1.43v4.22Z"/>
  <path class="st0" d="M94.24,92.41c0,.56-.07,1.1-.19,1.65-.14.57-.32,1.13-.54,1.65-.24.54-.5,1.06-.81,1.53-.32.49-.65.93-1,1.32h-1.32c.78-1.14,1.35-2.21,1.69-3.24.33-1.01.5-1.99.5-2.92,0-.46-.04-.93-.12-1.43-.08-.49-.21-.99-.36-1.5-.17-.5-.39-1.03-.67-1.58-.28-.54-.62-1.1-1.04-1.68h1.32c.39.43.74.89,1.04,1.36.31.49.57.99.79,1.5.21.54.38,1.08.51,1.64.12.57.19,1.14.19,1.69"/>
  <path class="st0" d="M101.68,90.6h-2.11l2.6,5.07-1.21.85-2.1-4.58-2.08,4.58-1.24-.85,2.58-5.07h-2.11v-1.35h5.67v1.35ZM103.16,87.66h1.33v9.38h-1.33v-3.93h-1.78v-1.32h1.78v-4.13ZM107.12,97.03h-1.35v-10.06h1.35v10.06Z"/>
  <path class="st0" d="M118.26,93.91v1.25h-4.21v3.13h-1.35v-3.13h-4.21v-1.25s9.77,0,9.77,0ZM116.88,89.06h-2.86l3.42,2.93c-.19.2-.38.35-.51.47-.17.14-.33.29-.51.44l-3.06-2.67-3.04,2.65c-.19-.17-.36-.33-.53-.47s-.33-.28-.49-.43l3.43-2.93h-2.86v-1.36h7.02v1.36h0Z"/>
  <path class="st0" d="M122.49,89.14c.53,0,1,.12,1.44.35.42.25.79.57,1.1.97h3.08v-3.49h1.43v10.06h-1.43v-1.99h-3.33c-.3.33-.64.58-1.03.75-.4.19-.82.28-1.26.28s-.85-.08-1.24-.28c-.4-.17-.75-.42-1.03-.74-.31-.31-.53-.67-.69-1.1-.17-.42-.25-.88-.25-1.36s.08-.92.25-1.35c.17-.42.39-.79.69-1.1.28-.31.62-.56,1.03-.75.39-.17.79-.26,1.24-.26M122.49,94.62c.25,0,.5-.06.74-.17.22-.1.43-.24.61-.43.17-.17.31-.38.42-.62.1-.25.15-.52.15-.79s-.06-.54-.15-.79c-.11-.24-.25-.44-.42-.64-.18-.17-.39-.31-.61-.42-.24-.1-.49-.15-.74-.15s-.5.06-.72.15c-.24.11-.44.25-.61.42-.18.19-.32.4-.4.64-.11.25-.15.51-.15.79s.04.54.15.79c.08.25.22.46.4.62.17.19.38.33.61.43.22.11.47.17.72.17M125.73,92.6c0,.19-.01.39-.04.57-.03.19-.08.39-.14.56h2.57v-1.95h-2.5c.07.28.11.54.11.82"/>
  <path class="st0" d="M133.98,87.48l3.42,5.26-1.18.89-2.24-3.78-2.24,3.78-1.18-.89,3.42-5.26ZM135.06,97.28c0-.35.07-.68.22-1.01.14-.32.33-.6.58-.83.25-.22.55-.42.9-.57.33-.14.71-.22,1.1-.22s.76.09,1.11.22c.33.15.62.35.89.57.25.24.44.51.6.83.14.33.22.67.22,1.01,0,.38-.08.72-.22,1.04-.15.31-.35.58-.6.82-.26.22-.56.42-.89.56-.35.14-.72.21-1.11.21s-.76-.07-1.1-.21c-.35-.14-.65-.33-.9-.56-.25-.24-.45-.51-.58-.82-.15-.32-.22-.67-.22-1.04M136.42,97.28c0,.36.14.68.42.93s.61.38,1.03.38.75-.12,1.03-.38c.28-.25.42-.57.42-.93s-.14-.65-.42-.9-.62-.38-1.03-.38-.75.12-1.03.38-.42.55-.42.9M137.01,89.48h2.6v-2.5h1.46v7.24h-1.46v-3.39h-2.6v-1.35Z"/>
  <path class="st0" d="M145.57,87.63c.45,0,.85.1,1.24.26.37.18.71.42.99.69.28.31.5.65.67,1.04.15.4.24.82.24,1.26s-.08.89-.24,1.28c-.17.4-.39.75-.67,1.04-.28.3-.61.53-.99.69-.39.17-.79.25-1.24.25s-.85-.08-1.22-.25c-.39-.17-.72-.39-1-.69-.28-.29-.5-.64-.65-1.04-.17-.39-.25-.82-.25-1.28s.08-.86.25-1.26c.15-.39.38-.74.65-1.04.28-.28.61-.51,1-.69.38-.17.78-.26,1.22-.26M145.57,92.81c.5,0,.92-.18,1.25-.56.32-.36.49-.81.49-1.33,0-.26-.04-.51-.12-.75-.1-.22-.22-.43-.36-.61-.17-.17-.35-.31-.55-.42-.22-.1-.46-.15-.7-.15s-.47.06-.68.15c-.22.11-.4.25-.55.42-.17.18-.28.39-.36.61-.1.24-.14.49-.14.75,0,.53.17.97.5,1.33.32.37.74.56,1.24.56M151.84,99.39h-6.53v-3.99h1.44v2.71h5.08v1.28h0ZM152.19,95.19h-1.42v-8.21h1.42v8.21Z"/>
  <path class="st0" d="M161.35,91.98v1.21h-3.32v2.04h-1.39v-2.04h-2.72v-1.21h7.43ZM160.11,91.64h-1.39v-3.06h-4.35v-1.28h5.74v4.33h0ZM163.35,99.4h-6.53v-3.38h1.4v2.14h5.13v1.24ZM160.53,94.06h1.78v-7.09h1.39v8.13h-3.17v-1.04Z"/>
  <path class="st0" d="M168.2,87.63c.51,0,.99.12,1.43.35.42.24.78.56,1.07.94h2.97v-1.95h1.42v8.22h-1.42v-2.39h-2.92c-.28.42-.64.75-1.07.99-.44.25-.94.36-1.48.36-.45,0-.85-.09-1.22-.25-.39-.17-.72-.39-1-.69-.28-.29-.5-.64-.65-1.04-.17-.39-.25-.82-.25-1.28s.08-.86.25-1.26c.15-.39.38-.74.65-1.04.28-.28.61-.51,1-.69.38-.17.78-.26,1.22-.26M168.2,92.81c.5,0,.92-.18,1.25-.55.32-.36.49-.81.49-1.33,0-.26-.04-.51-.12-.75-.1-.22-.22-.43-.36-.61-.17-.17-.35-.31-.56-.42-.22-.1-.46-.15-.69-.15-.25,0-.47.06-.68.15-.22.11-.4.25-.56.42-.17.18-.28.39-.36.61-.1.24-.14.49-.14.75,0,.53.17.97.5,1.33.32.37.74.55,1.24.55M174.77,99.39h-6.53v-3.99h1.43v2.71h5.1v1.28ZM171.32,90.92c0,.22-.03.42-.06.6h2.4v-1.33h-2.42c.03.14.04.25.05.36,0,.12,0,.25,0,.38"/>
  <path class="st0" d="M178.2,95.52h3.78v1.26h-5.15v-7.53h4.28v1.29h-2.9v4.97h-.01ZM185.89,92.55h-1.57v4.49h-1.33v-9.38h1.33v3.64h1.57v-4.32h1.33v10.06h-1.33v-4.49Z"/>
  <path class="st0" d="M82.53,108.22v.93h-3.14v2.15h-1.01v-2.15h-3.14v-.93h7.29ZM77.18,103.21v1.22h3.42v-.88h1.03v3.65h-5.46v-3.99h1.02,0ZM77.18,106.29h3.42v-.97h-3.42v.97Z"/>
  <path class="st0" d="M88.11,106.86l-.86.62-1.67-2.58c-.25.41-.53.84-.82,1.28-.3.46-.58.89-.85,1.31-.18-.12-.32-.22-.44-.32-.12-.09-.27-.2-.43-.31l2.54-3.66,2.53,3.66ZM87.06,111.29h3.96v.85h-5.02v-2.31h3.44v-.62h-3.15v-.84h4.2v2.3h-3.43s0,.62,0,.62ZM87.84,104.6h1.94v-1.73h1.09v4.84h-1.09v-2.09h-1.94v-1.02Z"/>
  <path class="st0" d="M99.65,105.58h-1.57l1.94,3.78-.9.63-1.56-3.42-1.55,3.42-.92-.63,1.93-3.78h-1.58v-1.01h4.23v1.01h-.02ZM100.76,103.38h1v6.99h-1v-2.93h-1.33v-.98h1.33s0-3.08,0-3.08ZM103.71,110.38h-1v-7.5h1v7.5Z"/>
  <path class="st0" d="M112.02,108.04v.93h-3.14v2.33h-1.01v-2.33h-3.14v-.93h7.29ZM110.99,104.43h-2.13l2.55,2.19c-.14.15-.28.26-.38.35-.12.1-.25.22-.38.33l-2.28-1.99-2.27,1.98c-.15-.12-.27-.25-.39-.35s-.25-.21-.36-.32l2.56-2.19h-2.13v-1.02h5.23v1.02h-.02Z"/>
  <path class="st0" d="M115.67,103.95h1.88v.91h-.84c.2.19.34.42.43.68.08.27.12.52.12.74,0,.29-.06.57-.17.82-.11.27-.26.5-.45.68-.2.19-.41.33-.66.44-.26.11-.54.17-.83.17s-.56-.05-.81-.17c-.26-.1-.48-.25-.66-.44-.2-.19-.35-.41-.46-.68-.11-.25-.17-.53-.17-.82,0-.22.04-.46.12-.71.07-.25.22-.48.43-.71h-.84v-.91h1.88v-1.17h1.01v1.17h.02ZM115.17,107.44c.16,0,.3-.03.44-.1.12-.06.23-.15.33-.26.09-.1.17-.23.23-.37.04-.15.07-.3.07-.47,0-.33-.1-.61-.31-.85-.21-.23-.48-.35-.81-.35-.28.02-.52.15-.7.37-.2.24-.29.52-.29.83,0,.33.1.61.31.84.2.25.44.36.74.36M119.97,112.14h-4.87v-2.84h1.08v1.85h3.79v.98h0ZM117.51,105.05h1.66v-2.18h1.07v6.12h-1.07v-1.36h-1.66v-.88h1.66v-.83h-1.66v-.88h0Z"/>
  <path class="st0" d="M126,104.5h-1.35l1.81,2.82-.87.64-1.77-2.99-1.76,2.99-.87-.64,1.81-2.82h-1.35v-.95h4.34v.95h.01ZM124.14,110.56c0-.26.05-.51.17-.76.1-.24.25-.44.43-.62.19-.17.41-.31.67-.43.25-.1.53-.16.82-.16s.57.06.83.16c.25.12.47.26.66.43.19.18.33.38.44.62.1.25.17.5.17.76,0,.28-.06.54-.17.78-.11.23-.26.44-.44.61-.2.17-.41.31-.66.41-.26.1-.54.16-.83.16s-.57-.05-.82-.16c-.26-.1-.49-.25-.67-.41-.19-.18-.33-.38-.43-.61-.11-.24-.17-.5-.17-.78M125.15,110.56c0,.27.1.51.31.69.21.19.46.28.77.28s.56-.09.77-.28.31-.42.31-.69-.1-.49-.31-.67c-.21-.19-.47-.28-.77-.28s-.56.09-.77.28-.31.41-.31.67M128.64,108.27h-1.07v-5.4h1.07v2.17h1.48v1.04h-1.48v2.2h0Z"/>
  <path class="st0" d="M132.79,103.24l2.55,3.93-.88.65-1.67-2.81-1.67,2.81-.88-.65,2.55-3.93ZM133.1,110.56c0-.26.05-.51.17-.76.1-.24.25-.44.44-.62.19-.17.4-.31.66-.43.25-.1.53-.16.83-.16s.56.06.82.16c.25.12.48.26.66.43.19.18.34.38.46.62.1.25.15.5.15.76,0,.28-.05.54-.15.78-.11.23-.27.44-.46.61s-.41.31-.66.41c-.26.1-.53.16-.82.16s-.58-.05-.83-.16c-.26-.1-.48-.25-.66-.41-.2-.18-.34-.38-.44-.61-.11-.24-.17-.5-.17-.78M134.13,110.56c0,.27.1.51.31.69.21.19.46.28.77.28.29,0,.55-.09.76-.28.21-.19.31-.42.31-.69s-.1-.49-.31-.67c-.21-.19-.47-.28-.76-.28-.31,0-.56.09-.77.28s-.31.41-.31.67M137.61,108.27h-1.06v-5.4h1.06v2.17h1.49v1.04h-1.49v2.2h0Z"/>
  <path class="st0" d="M140.77,106.92h3.49v.94h-4.52v-4.31h3.86v.97h-2.84v2.39h0ZM141.44,109h4.86v3.14h-4.86v-3.14ZM142.49,111.27h2.76v-1.4h-2.76v1.4ZM146.54,108.27h-1.06v-5.4h1.06v2.17h1.49v1.04h-1.49v2.2h0Z"/>
  <path class="st0" d="M150.57,103.24l2.41,4.05-.88.66-1.53-2.8-1.54,2.8-.88-.66,2.42-4.05ZM156.47,112.14h-4.87v-2.97h1.07v2.02h3.8v.95h0ZM153.78,103.38h1v5.55h-1v-3.31h-1.53v-.99h1.53v-1.25ZM156.73,109h-1.02v-6.12h1.02v6.12Z"/>
  <path class="st0" d="M159.04,109.18h3.49v1h-4.52v-5.62h3.86v1.01h-2.84v1.29h2.58v1.02h-2.58v1.3h0ZM164.22,110.38v-2.48h-1.84v-1.03h1.84v-4h1.06v7.5h-1.06Z"/>
  <path class="st0" d="M167.3,104.55c-.19,0-.32-.05-.42-.17-.1-.1-.16-.22-.19-.34-.02-.06-.02-.14-.02-.23s0-.17.02-.25c.08-.34.23-.59.44-.76.21-.16.36-.27.48-.34.04-.01.08-.01.11-.01.02.01.04.03.06.07,0,.04,0,.07,0,.1-.02.04-.05.07-.07.09-.1.04-.2.1-.29.19-.1.09-.19.25-.25.48,0,0,.04,0,.08-.01h.13c.15,0,.26.06.35.17.08.11.12.27.12.47-.02.34-.21.52-.56.54"/>
  <path class="st0" d="M170.34,103.76h1.08v1.63h1.82v.97h-.77c.17.27.29.53.37.77.06.25.1.49.1.72,0,.31-.05.6-.16.87-.11.27-.26.51-.44.71-.2.21-.42.37-.66.49-.25.12-.53.18-.82.18s-.56-.05-.81-.18c-.26-.11-.48-.28-.65-.49-.2-.2-.34-.44-.44-.71-.11-.27-.17-.56-.17-.87,0-.23.04-.48.12-.74.07-.25.19-.5.35-.75h-.76v-.97h1.82v-1.63h.02ZM170.87,109.09c.16,0,.3-.03.44-.1.12-.06.23-.17.33-.29.09-.1.16-.25.23-.42.04-.15.07-.33.07-.52,0-.18-.03-.35-.07-.52-.06-.16-.14-.3-.23-.42-.1-.1-.21-.2-.33-.27-.13-.06-.28-.1-.44-.1-.31,0-.56.13-.75.38-.21.26-.3.57-.3.93s.09.69.3.94c.19.26.43.38.75.38M175.93,107.03h-1.17v3.35h-.99v-6.99h.99v2.71h1.17v-3.22h.99v7.5h-.99v-3.35Z"/>
  <path class="st0" d="M179.28,106.96h2.75v.91h-3.82v-4.32h1.08v3.41h0ZM180.88,109h4.85v3.14h-4.85v-3.14ZM181.93,111.27h2.76v-1.4h-2.76v1.4ZM184.99,102.87h.99v5.4h-.99v-2.2h-1.16v2.13h-1v-4.96h1v1.9h1.16v-2.27Z"/>
  <path class="st0" d="M187.3,102.43c.18,0,.32.05.42.16.09.11.15.23.18.35,0,.07.02.14.02.23s0,.17-.02.25c-.08.35-.23.6-.44.76-.21.17-.37.28-.48.34-.05.02-.09.02-.11.01-.03,0-.05-.03-.06-.07,0-.03,0-.07.02-.11,0-.03.03-.06.06-.08.09-.03.19-.09.29-.19.09-.08.18-.25.25-.48h-.07s-.09.01-.15.01c-.15,0-.26-.05-.34-.17-.09-.1-.14-.26-.14-.47.02-.33.21-.52.56-.54"/>
</svg>